<svg class="border shadow-md" viewBox="0 0 1351.68 760.32" style="width: 1351.68px; height: 760.32px;" xmlns="http://www.w3.org/2000/svg" preserveAspectRatio="none"><rect class="bg" id="bg" x="0" y="0" width="1351.68" height="760.32" fill="#1f1f1f"/><g><path d="M 0 -89.12V -53.472 H 112.64 V -71.296 H 225.28 V -89.12 H 337.92 V -53.472 H 450.56 V -89.12 H 563.2 V -89.12 H 675.84 V -124.768 H 788.48 V -53.472 H 901.12 V -89.12 H 1013.76 V -71.296 H 1126.4 V -89.12 H 1239.04 V -71.296 H 1351.68 V 761.32 H 0 V -89.12 Z" fill="#050505"/></g><g><path d="M 0 0V 35.648 H 112.64 V 17.824 H 225.28 V 0 H 337.92 V -53.472 H 450.56 V 53.472 H 563.2 V -35.648 H 675.84 V -35.648 H 788.48 V -35.648 H 901.12 V 35.648 H 1013.76 V 0 H 1126.4 V 0 H 1239.04 V 35.648 H 1351.68 V 761.32 H 0 V 0 Z" fill="#0a0a0a"/></g><g><path d="M 0 89.12V 53.472 H 112.64 V 124.768 H 225.28 V 124.768 H 337.92 V 35.648 H 450.56 V 124.768 H 563.2 V 142.592 H 675.84 V 106.944 H 788.48 V 89.12 H 901.12 V 124.768 H 1013.76 V 142.592 H 1126.4 V 106.944 H 1239.04 V 89.12 H 1351.68 V 761.32 H 0 V 89.12 Z" fill="#0f0f0f"/></g><g><path d="M 0 178.24V 213.888 H 112.64 V 124.768 H 225.28 V 160.416 H 337.92 V 213.888 H 450.56 V 231.71200000000002 H 563.2 V 160.416 H 675.84 V 160.416 H 788.48 V 178.24 H 901.12 V 231.71200000000002 H 1013.76 V 196.06400000000002 H 1126.4 V 213.888 H 1239.04 V 178.24 H 1351.68 V 761.32 H 0 V 178.24 Z" fill="#141414"/></g><g><path d="M 0 267.36V 267.36 H 112.64 V 249.536 H 225.28 V 320.832 H 337.92 V 303.00800000000004 H 450.56 V 267.36 H 563.2 V 267.36 H 675.84 V 249.536 H 788.48 V 285.184 H 901.12 V 320.832 H 1013.76 V 303.00800000000004 H 1126.4 V 285.184 H 1239.04 V 231.71200000000002 H 1351.68 V 761.32 H 0 V 267.36 Z" fill="#191919"/></g><g><path d="M 0 356.48V 409.952 H 112.64 V 320.832 H 225.28 V 374.30400000000003 H 337.92 V 409.952 H 450.56 V 374.30400000000003 H 563.2 V 374.30400000000003 H 675.84 V 374.30400000000003 H 788.48 V 409.952 H 901.12 V 392.12800000000004 H 1013.76 V 392.12800000000004 H 1126.4 V 374.30400000000003 H 1239.04 V 356.48 H 1351.68 V 761.32 H 0 V 356.48 Z" fill="#1e1e1e"/></g><g><path d="M 0 445.6V 427.776 H 112.64 V 481.24800000000005 H 225.28 V 499.072 H 337.92 V 463.42400000000004 H 450.56 V 481.24800000000005 H 563.2 V 481.24800000000005 H 675.84 V 463.42400000000004 H 788.48 V 427.776 H 901.12 V 427.776 H 1013.76 V 392.12800000000004 H 1126.4 V 409.952 H 1239.04 V 499.072 H 1351.68 V 761.32 H 0 V 445.6 Z" fill="#232323"/></g><g><path d="M 0 534.72V 516.8960000000001 H 112.64 V 534.72 H 225.28 V 588.192 H 337.92 V 588.192 H 450.56 V 534.72 H 563.2 V 588.192 H 675.84 V 534.72 H 788.48 V 534.72 H 901.12 V 552.544 H 1013.76 V 588.192 H 1126.4 V 534.72 H 1239.04 V 588.192 H 1351.68 V 761.32 H 0 V 534.72 Z" fill="#282828"/></g><g><path d="M 0 623.84V 659.488 H 112.64 V 623.84 H 225.28 V 570.368 H 337.92 V 659.488 H 450.56 V 623.84 H 563.2 V 588.192 H 675.84 V 570.368 H 788.48 V 570.368 H 901.12 V 641.664 H 1013.76 V 641.664 H 1126.4 V 623.84 H 1239.04 V 659.488 H 1351.68 V 761.32 H 0 V 623.84 Z" fill="#2d2d2d"/></g><g><path d="M 0 712.96V 766.432 H 112.64 V 748.6080000000001 H 225.28 V 712.96 H 337.92 V 712.96 H 450.56 V 712.96 H 563.2 V 712.96 H 675.84 V 766.432 H 788.48 V 748.6080000000001 H 901.12 V 695.1360000000001 H 1013.76 V 766.432 H 1126.4 V 730.784 H 1239.04 V 712.96 H 1351.68 V 761.32 H 0 V 712.96 Z" fill="#323232"/></g><g><path d="M 0 802.08V 837.7280000000001 H 112.64 V 837.7280000000001 H 225.28 V 784.2560000000001 H 337.92 V 802.08 H 450.56 V 766.432 H 563.2 V 855.552 H 675.84 V 837.7280000000001 H 788.48 V 802.08 H 901.12 V 748.6080000000001 H 1013.76 V 784.2560000000001 H 1126.4 V 837.7280000000001 H 1239.04 V 819.904 H 1351.68 V 761.32 H 0 V 802.08 Z" fill="#373737"/></g><g><path d="M 0 891.2V 837.7280000000001 H 112.64 V 909.024 H 225.28 V 837.7280000000001 H 337.92 V 873.3760000000001 H 450.56 V 909.024 H 563.2 V 944.672 H 675.84 V 891.2 H 788.48 V 873.3760000000001 H 901.12 V 837.7280000000001 H 1013.76 V 926.8480000000001 H 1126.4 V 926.8480000000001 H 1239.04 V 891.2 H 1351.68 V 761.32 H 0 V 891.2 Z" fill="#3c3c3c"/></g></svg>