<svg class="border shadow-md" viewBox="0 0 1351.68 760.32" style="width: 1351.68px; height: 760.32px;" xmlns="http://www.w3.org/2000/svg" preserveAspectRatio="none"><rect class="bg" id="bg" x="0" y="0" width="1351.68" height="760.32" fill="#ffffff"/><g transform="rotate(0 675.84 380.16)"><path id="-1" d="M -387.92 -160.08 S -362.00 -255.12&#10;            0.00 -160.08 148.92 -255.12&#10;            387.92 -160.08 455.84 -276.08&#10;            775.84 -160.08 851.76 -298.08&#10;            1163.76 -160.08 1347.72 -255.12&#10;            1551.68 -160.08 1735.64 -264.08&#10;            1939.60 -160.08 h 110 V 960.32 H -387.92 Z" fill="#3D3D3D"/><path id="0" d="M -387.92 30.00 S -203.96 -65.04&#10;            0.00 30.00 38.92 -65.04&#10;            387.92 30.00 571.88 -91.00&#10;            775.84 30.00 933.76 -65.04&#10;            1163.76 30.00 1309.68 -65.04&#10;            1551.68 30.00 1685.60 -90.00&#10;            1939.60 30.00 h 110 V 960.32 H -387.92 Z" fill="#323232"/><path id="1" d="M -387.92 220.08 S -203.96 125.04&#10;            0.00 220.08 183.96 125.04&#10;            387.92 220.08 378.84 125.04&#10;            775.84 220.08 959.80 125.04&#10;            1163.76 220.08 1335.68 125.04&#10;            1551.68 220.08 1735.64 111.08&#10;            1939.60 220.08 h 110 V 960.32 H -387.92 Z" fill="#272727"/><path id="2" d="M -387.92 410.16 S -322.00 315.12&#10;            0.00 410.16 183.96 315.12&#10;            387.92 410.16 442.84 315.12&#10;            775.84 410.16 959.80 315.12&#10;            1163.76 410.16 1347.72 315.12&#10;            1551.68 410.16 1581.60 315.12&#10;            1939.60 410.16 h 110 V 960.32 H -387.92 Z" fill="#1c1c1c"/><path id="3" d="M -387.92 600.24 S -203.96 505.20&#10;            0.00 600.24 126.92 505.20&#10;            387.92 600.24 434.84 479.24&#10;            775.84 600.24 959.80 505.20&#10;            1163.76 600.24 1347.72 505.20&#10;            1551.68 600.24 1735.64 504.24&#10;            1939.60 600.24 h 110 V 960.32 H -387.92 Z" fill="#111111"/></g></svg>